<?xml version="1.0" encoding="UTF-8" standalone="no"?>
<svg
   width="20"
   height="16"
   viewBox="0 0 20 16"
   version="1.1"
   id="svg4"
   sodipodi:docname="debug24px.svg"
   inkscape:version="1.1 (c68e22c387, 2021-05-23)"
   xmlns:inkscape="http://www.inkscape.org/namespaces/inkscape"
   xmlns:sodipodi="http://sodipodi.sourceforge.net/DTD/sodipodi-0.dtd"
   xmlns="http://www.w3.org/2000/svg"
   xmlns:svg="http://www.w3.org/2000/svg">
  <defs
     id="defs8" />
  <sodipodi:namedview
     id="namedview6"
     pagecolor="#505050"
     bordercolor="#eeeeee"
     borderopacity="1"
     inkscape:pageshadow="0"
     inkscape:pageopacity="0"
     inkscape:pagecheckerboard="0"
     showgrid="false"
     inkscape:zoom="15.479167"
     inkscape:cx="6.0726782"
     inkscape:cy="8.3660833"
     inkscape:window-width="1920"
     inkscape:window-height="1000"
     inkscape:window-x="-11"
     inkscape:window-y="-11"
     inkscape:window-maximized="1"
     inkscape:current-layer="svg4"
     width="16px" />
  <path
     d="M 0,0 H 24 V 24 H 0 Z"
     fill="none"
     id="path2" />
  <path
     style="fill:#69932c;fill-opacity:1;stroke-width:0.652986"
     d="m 13.889728,13.884018 -0.594574,-1.735886 c 0.386626,-0.443035 0.669328,-0.967811 0.825681,-1.539039 l 1.351839,0.662029 0.572676,-1.169381 -1.799687,-0.8813518 C 14.216283,8.9129481 14.153894,8.6099093 14.050212,8.3072118 13.946499,8.0045239 13.810015,7.7268661 13.646841,7.4721549 L 14.52606,5.666296 13.356678,5.0936208 12.692533,6.4392825 C 12.220897,6.0900609 11.675815,5.8488269 11.098749,5.7358854 L 10.504174,4.0000001 9.2686745,4.4231987 9.7109183,5.7142963 C 9.4964586,5.7532413 9.2841373,5.7983576 9.074102,5.8703011 L 8.4563518,6.0818973 8.0331716,4.8463904 6.7976705,5.2695894 7.22085,6.5050954 6.6030992,6.7166917 C 6.3930643,6.7886369 6.19767,6.8831733 6.0043924,6.9838876 L 5.5621482,5.6927917 4.3266473,6.1159907 4.9212403,7.8518689 C 4.0355283,8.8730894 3.6964342,10.321383 4.166182,11.692789 4.6359311,13.064195 5.7917923,14.00042 7.1176281,14.264121 L 7.7122215,16 8.9477277,15.57682 8.5054831,14.285722 c 0.2144375,-0.03895 0.426758,-0.08406 0.636795,-0.155999 l 0.6177436,-0.21162 0.4231793,1.235506 1.235507,-0.42318 -0.423179,-1.235506 0.617742,-0.21162 c 0.210037,-0.07194 0.405428,-0.166484 0.598707,-0.267195 l 0.442245,1.291099 z M 7.6781331,11.870297 6.831742,9.3992937 8.0672486,8.9761136 8.9136392,11.447116 Z M 10.149137,11.023906 9.3027457,8.552903 10.538252,8.1297228 11.384643,10.600726 Z"
     id="path4" />
</svg>
