<?xml version="1.0" encoding="UTF-8" standalone="no"?>
<svg
   width="20"
   height="16"
   viewBox="0 0 26.666667 17.066667"
   version="1.1"
   id="svg4"
   sodipodi:docname="file24px.svg"
   inkscape:version="1.1 (c68e22c387, 2021-05-23)"
   xmlns:inkscape="http://www.inkscape.org/namespaces/inkscape"
   xmlns:sodipodi="http://sodipodi.sourceforge.net/DTD/sodipodi-0.dtd"
   xmlns="http://www.w3.org/2000/svg"
   xmlns:svg="http://www.w3.org/2000/svg">
  <defs
     id="defs8" />
  <sodipodi:namedview
     id="namedview6"
     pagecolor="#505050"
     bordercolor="#eeeeee"
     borderopacity="1"
     inkscape:pageshadow="0"
     inkscape:pageopacity="0"
     inkscape:pagecheckerboard="0"
     showgrid="false"
     inkscape:zoom="24.766666"
     inkscape:cx="13.405115"
     inkscape:cy="11.123823"
     inkscape:window-width="1920"
     inkscape:window-height="1000"
     inkscape:window-x="-11"
     inkscape:window-y="-11"
     inkscape:window-maximized="1"
     inkscape:current-layer="svg4"
     width="20px" />
  <path
     style="fill:#828ea0;stroke-width:1.06667"
     d="M 8.799999,4.8000003 A 0.26666668,0.26666668 0 0 0 8.5333328,5.0666669 V 17.333333 C 8.5333328,17.480532 8.652805,17.6 8.799999,17.6 h 9.066667 a 0.26666668,0.26666668 0 0 0 0.266668,-0.266667 V 9.6000009 H 15.199999 A 1.8666666,1.8666666 0 0 1 13.333333,7.7333338 V 4.8000003 Z m 6.133333,0.5973334 v 2.3360001 c 0,0.1471999 0.119472,0.2666666 0.266667,0.2666666 h 2.336 z M 6.9333331,5.0666669 c 0,-1.0304 0.8362668,-1.8666667 1.8666659,-1.8666667 h 5.425068 c 0.494933,0 0.9696,0.1962665 1.319466,0.5472 l 3.6416,3.6416001 c 0.350934,0.3498668 0.547201,0.8245335 0.547201,1.3194666 V 17.333333 A 1.8666666,1.8666666 0 0 1 17.866666,19.2 H 8.799999 A 1.8666666,1.8666666 0 0 1 6.9333331,17.333333 Z"
     id="path2" />
</svg>
