<?xml version="1.0" encoding="UTF-8" standalone="no"?>
<svg
   width="20"
   height="16"
   viewBox="0 0 20 16"
   version="1.1"
   id="svg6"
   sodipodi:docname="folder18px.svg"
   inkscape:version="1.1 (c68e22c387, 2021-05-23)"
   xmlns:inkscape="http://www.inkscape.org/namespaces/inkscape"
   xmlns:sodipodi="http://sodipodi.sourceforge.net/DTD/sodipodi-0.dtd"
   xmlns="http://www.w3.org/2000/svg"
   xmlns:svg="http://www.w3.org/2000/svg">
  <defs
     id="defs10" />
  <sodipodi:namedview
     id="namedview8"
     pagecolor="#505050"
     bordercolor="#eeeeee"
     borderopacity="1"
     inkscape:pageshadow="0"
     inkscape:pageopacity="0"
     inkscape:pagecheckerboard="0"
     showgrid="false"
     inkscape:zoom="29.187797"
     inkscape:cx="-0.85652233"
     inkscape:cy="8.9934845"
     inkscape:window-width="1920"
     inkscape:window-height="1000"
     inkscape:window-x="-11"
     inkscape:window-y="-11"
     inkscape:window-maximized="1"
     inkscape:current-layer="g14"
     width="16px" />
  <g
     id="g14"
     transform="translate(0,2)">
    <g
       id="g10"
       transform="matrix(0.85714286,0,0,0.85714286,2.2857143,1.1428571)">
      <path
         style="fill:#54aeff;fill-opacity:1"
         d="m 3.5397039,4.6351303 h 4.123065 l 1.9152942,2.1432939 4.9064589,-2e-7 v 6.851455 H 3.5397039 Z"
         id="path2" />
      <path
         style="fill:#3aa2ff;fill-opacity:1"
         d="M 15,5 H 10 L 8,3 H 3 C 2.45,3 2,3.45 2,4 v 10 c 0,0.55 0.45,1 1,1 h 12 c 0.55,0 1,-0.45 1,-1 V 6 C 16,5.45 15.55,5 15,5 Z m -0.515478,8.629879 H 3.5397039 V 4.6351305 h 4.1230648 l 1.9152944,2.1432937 h 4.9064589 z"
         id="path4" />
    </g>
  </g>
</svg>
