<?xml version="1.0" encoding="UTF-8" standalone="no"?>
<svg
   width="20"
   height="16"
   viewBox="0 0 20 16"
   version="1.1"
   id="svg3"
   sodipodi:docname="home18px.svg"
   inkscape:version="1.1 (c68e22c387, 2021-05-23)"
   xmlns:inkscape="http://www.inkscape.org/namespaces/inkscape"
   xmlns:sodipodi="http://sodipodi.sourceforge.net/DTD/sodipodi-0.dtd"
   xmlns="http://www.w3.org/2000/svg"
   xmlns:svg="http://www.w3.org/2000/svg">
  <defs
     id="defs7" />
  <sodipodi:namedview
     id="namedview5"
     pagecolor="#505050"
     bordercolor="#eeeeee"
     borderopacity="1"
     inkscape:pageshadow="0"
     inkscape:pageopacity="0"
     inkscape:pagecheckerboard="0"
     showgrid="false"
     inkscape:zoom="11.313709"
     inkscape:cx="5.0381358"
     inkscape:cy="21.257398"
     inkscape:window-width="1920"
     inkscape:window-height="1000"
     inkscape:window-x="-11"
     inkscape:window-y="-11"
     inkscape:window-maximized="1"
     inkscape:current-layer="svg3"
     width="20px" />
  <path
     style="fill:#3aa2ff;fill-opacity:1;stroke:none;stroke-width:0.21825;stroke-miterlimit:4;stroke-dasharray:none;stroke-opacity:1"
     d="m 3.9999999,10.193748 0.7129463,0.751848 C 4.9416556,10.707117 5.9782339,9.683098 6.2070894,9.4447639 6.8200741,11.426255 6.2308795,14.411955 6.1349352,15.999745 L 8.6438944,16 l -2.7e-6,-4.035381 1.3355066,-3e-6 c 0,0 0.8915367,-0.0079 1.3364987,6e-6 l 0.03785,4.035369 2.511249,-2.49e-4 c -0.09583,-1.587789 -0.685254,-4.573493 -0.07226,-6.554981 0.229007,0.2381669 1.265485,1.262401 1.4943,1.500783 L 16,10.193785 C 14.76785,9.2698804 13.966734,8.9306471 10.085919,4 8.2984484,6.3350503 6.0048817,8.7037281 4.0000134,10.193725 Z"
     id="path2"
     sodipodi:nodetypes="cccccccccccccccc" />
</svg>
