<?xml version="1.0" encoding="UTF-8" standalone="no"?>
<svg
   width="20"
   height="16"
   viewBox="0 0 20 16"
   version="1.1"
   id="svg4"
   sodipodi:docname="link24px.svg"
   inkscape:version="1.1 (c68e22c387, 2021-05-23)"
   xmlns:inkscape="http://www.inkscape.org/namespaces/inkscape"
   xmlns:sodipodi="http://sodipodi.sourceforge.net/DTD/sodipodi-0.dtd"
   xmlns="http://www.w3.org/2000/svg"
   xmlns:svg="http://www.w3.org/2000/svg">
  <defs
     id="defs8" />
  <sodipodi:namedview
     id="namedview6"
     pagecolor="#505050"
     bordercolor="#eeeeee"
     borderopacity="1"
     inkscape:pageshadow="0"
     inkscape:pageopacity="0"
     inkscape:pagecheckerboard="0"
     showgrid="false"
     width="20px"
     inkscape:zoom="7.7395833"
     inkscape:cx="-17.701211"
     inkscape:cy="20.73755"
     inkscape:window-width="1920"
     inkscape:window-height="1000"
     inkscape:window-x="-11"
     inkscape:window-y="-11"
     inkscape:window-maximized="1"
     inkscape:current-layer="svg4" />
  <path
     d="M -4.9705627,12 12,-4.9705627 28.970563,12 12,28.970563 Z"
     id="path2"
     style="fill:none" />
  <path
     d="m 5.973488,14.026512 c -0.8500414,-0.850042 -0.8500414,-2.23198 0,-3.082021 L 7.961889,8.9560897 7.0173985,8.0115991 5.0289976,10 c -1.3719967,1.371997 -1.3719967,3.599006 0,4.971003 1.3719966,1.371996 3.5990055,1.371996 4.9710023,0 L 11.988401,12.982602 11.04391,12.038111 9.0555094,14.026512 c -0.8500413,0.850042 -2.23198,0.850042 -3.0820214,0 z M 8.5086992,12.485501 12.485501,8.5086993 11.4913,7.5144988 7.5144987,11.4913 Z M 9.9999999,5.0289977 8.011599,7.0173986 8.9560896,7.9618891 10.944491,5.9734881 c 0.850041,-0.8500414 2.231979,-0.8500414 3.082021,0 0.850042,0.8500414 0.850042,2.2319801 0,3.0820214 L 12.038111,11.04391 12.982602,11.988401 14.971003,10 c 1.371996,-1.3719968 1.371996,-3.5990057 0,-4.9710023 -1.371997,-1.3719967 -3.599006,-1.3719967 -4.9710031,0 z"
     id="path4"
     style="fill:#828ea0;fill-opacity:1;stroke-width:0.703006" />
</svg>
