<?xml version="1.0" encoding="UTF-8" standalone="no"?>
<svg
   width="20"
   height="16"
   viewBox="0 0 20 16"
   version="1.1"
   id="svg4"
   sodipodi:docname="namespace24px.svg"
   inkscape:version="1.1 (c68e22c387, 2021-05-23)"
   xmlns:inkscape="http://www.inkscape.org/namespaces/inkscape"
   xmlns:sodipodi="http://sodipodi.sourceforge.net/DTD/sodipodi-0.dtd"
   xmlns="http://www.w3.org/2000/svg"
   xmlns:svg="http://www.w3.org/2000/svg">
  <defs
     id="defs8" />
  <sodipodi:namedview
     id="namedview6"
     pagecolor="#505050"
     bordercolor="#eeeeee"
     borderopacity="1"
     inkscape:pageshadow="0"
     inkscape:pageopacity="0"
     inkscape:pagecheckerboard="0"
     showgrid="false"
     inkscape:zoom="20.48"
     inkscape:cx="10.546875"
     inkscape:cy="13.256836"
     inkscape:window-width="1920"
     inkscape:window-height="1000"
     inkscape:window-x="-11"
     inkscape:window-y="-11"
     inkscape:window-maximized="1"
     inkscape:current-layer="text6746"
     fit-margin-top="0"
     fit-margin-left="0"
     fit-margin-right="0"
     fit-margin-bottom="0"
     width="20px" />
  <rect
     style="fill:#828ea0;stroke-width:0.291"
     id="rect217"
     width="0"
     height="5.4406738"
     x="2528.9954"
     y="1532.489" />
  <g
     aria-label="{-}"
     id="text6746"
     style="font-size:10.6667px;line-height:1.25;fill:#828ea0;fill-opacity:1;stroke:none"
     transform="matrix(1.3558216,0,0,1.3558216,-19.595963,-42.855789)">
    <g
       id="g12715"
       transform="matrix(0.68884123,0,0,0.68884123,6.986477,11.114191)"
       style="fill:#758396;fill-opacity:1">
      <path
         style="fill:#758396;fill-opacity:1;stroke:none;stroke-width:1.30526"
         d="m 23.077322,45.904851 h 0.42829 q 0.856581,0 1.114916,-0.292324 0.265131,-0.292325 0.265131,-1.264477 v -1.685969 q 0,-1.060527 0.27193,-1.543205 0.27873,-0.482677 0.958556,-0.66623 -0.679826,-0.169956 -0.958556,-0.652633 -0.27193,-0.482676 -0.27193,-1.550002 v -1.685969 q 0,-0.965353 -0.265131,-1.257678 -0.258335,-0.299124 -1.114916,-0.299124 h -0.42829 v -0.972151 h 0.387501 q 1.522811,0 2.03268,0.503071 0.516667,0.496274 0.516667,1.998689 v 1.631583 q 0,1.01294 0.326317,1.407238 0.333115,0.387502 1.196494,0.387502 h 0.380702 v 0.97215 h -0.380702 q -0.863379,0 -1.196494,0.3943 -0.326317,0.394299 -0.326317,1.420837 v 1.624783 q 0,1.502416 -0.516667,2.005487 -0.509869,0.503071 -2.03268,0.503071 h -0.387501 z"
         id="path931" />
      <path
         style="fill:#758396;fill-opacity:1;stroke:none;stroke-width:1.30526"
         d="M 20.016284,45.904851 V 46.8838 h -0.380703 q -1.52281,0 -2.039478,-0.503071 -0.516667,-0.50307 -0.516667,-2.005487 v -1.624783 q 0,-1.026538 -0.333115,-1.420837 -0.326316,-0.3943 -1.196494,-0.3943 h -0.373904 v -0.97215 h 0.373904 q 0.876975,0 1.203292,-0.387502 0.326317,-0.394298 0.326317,-1.407238 v -1.631583 q 0,-1.502415 0.516667,-1.998689 0.516668,-0.503071 2.039478,-0.503071 h 0.380703 V 35.00724 H 19.60159 q -0.863379,0 -1.128512,0.299124 -0.258333,0.299123 -0.258333,1.257678 v 1.685969 q 0,1.067326 -0.278728,1.550002 -0.27873,0.482677 -0.951757,0.652633 0.679826,0.183554 0.951757,0.66623 0.278728,0.482678 0.278728,1.543205 v 1.685969 q 0,0.958554 0.258333,1.257679 0.265133,0.299123 1.128512,0.299123 z"
         id="path9270" />
    </g>
  </g>
</svg>
